HIERARCHY
ROOT Hips
{
	OFFSET 0.00000 0.00000 0.00000
	CHANNELS 6 Xposition Yposition Zposition Zrotation Yrotation Xrotation 
	JOINT LHipJoint
	{
		OFFSET 0 0 0
		CHANNELS 3 Zrotation Yrotation Xrotation
		JOINT LeftHip
		{
			OFFSET 1.56857 -1.73443 1.15205
			CHANNELS 3 Zrotation Yrotation Xrotation
			JOINT LeftKnee
			{
				OFFSET 2.39362 -6.57643 0.00000
				CHANNELS 3 Zrotation Yrotation Xrotation
				JOINT LeftAnkle
				{
					OFFSET 2.50952 -6.89485 0.00000
					CHANNELS 3 Zrotation Yrotation Xrotation
					JOINT LeftToe
					{
						OFFSET 0.17171 -0.47178 1.88682
						CHANNELS 3 Zrotation Yrotation Xrotation
						End Site
						{
							OFFSET 0.00000 -0.00000 0.98146
						}
					}
				}
			}
		}
	}
	JOINT RHipJoint
	{
		OFFSET 0 0 0
		CHANNELS 3 Zrotation Yrotation Xrotation
		JOINT RightHip
		{
			OFFSET -1.28153 -1.73443 1.15205
			CHANNELS 3 Zrotation Yrotation Xrotation
			JOINT RightKnee
			{
				OFFSET -2.26861 -6.23296 0.00000
				CHANNELS 3 Zrotation Yrotation Xrotation
				JOINT RightAnkle
				{
					OFFSET -2.54143 -6.98254 0.00000
					CHANNELS 3 Zrotation Yrotation Xrotation
					JOINT RightToe
					{
						OFFSET -0.23309 -0.64041 1.93119
						CHANNELS 3 Zrotation Yrotation Xrotation
						End Site
						{
							OFFSET -0.00000 -0.00000 1.02013
						}
					}
				}
			}
		}
	}
	JOINT lowerback
	{
		OFFSET 0 0 0
		CHANNELS 3 Zrotation Yrotation Xrotation
		JOINT Chest
		{
			OFFSET -0.07096 2.10460 -0.27878
			CHANNELS 3 Zrotation Yrotation Xrotation
			JOINT Chest2
			{
				OFFSET -0.00826 2.13662 -0.08279
				CHANNELS 3 Zrotation Yrotation Xrotation
				JOINT lowerneck
				{
					OFFSET 0 0 0
					CHANNELS 3 Zrotation Yrotation Xrotation
					JOINT Neck
					{
						OFFSET 0.03239 1.77799 0.24435
						CHANNELS 3 Zrotation Yrotation Xrotation
						JOINT Head
						{
							OFFSET 0.01026 1.74194 -0.49664
							CHANNELS 3 Zrotation Yrotation Xrotation
							End Site
							{
								OFFSET 0.00170 1.83057 -0.19653
							}
						}
					}
				}
				JOINT LeftCollar
				{
					OFFSET 0 0 0
					CHANNELS 3 Zrotation Yrotation Xrotation
					JOINT LeftShoulder
					{
						OFFSET 3.19178 1.35907 -0.31412
CHANNELS 3 Zrotation Xrotation Yrotation
						JOINT LeftElbow
						{
OFFSET 0 -4.852470 -0.000000
CHANNELS 3 Zrotation Xrotation Yrotation
							JOINT LeftWrist
							{
OFFSET 0 -3.555840 0.000000
CHANNELS 3 Zrotation Xrotation Yrotation
								JOINT lhand
								{
									OFFSET 0 0 0
CHANNELS 3 Zrotation Xrotation Yrotation
									JOINT LFingers
									{
OFFSET 0 -0.693200 0.000000
CHANNELS 3 Zrotation Xrotation Yrotation
										End Site
										{
OFFSET 0 -0.558880 0.000000
										}
									}
								}
								JOINT LThumb
								{
OFFSET 0 0.000000 0.000000
CHANNELS 3 Zrotation Xrotation Yrotation
									End Site
									{
OFFSET 0 -0.567410 0.567410
									}
								}
							}
						}
					}
				}
				JOINT RightCollar
				{
					OFFSET 0 0 0
					CHANNELS 3 Zrotation Yrotation Xrotation
					JOINT RightShoulder
					{
						OFFSET -3.28999 1.24191 -0.26899
CHANNELS 3 Zrotation Xrotation Yrotation
						JOINT RightElbow
						{
OFFSET 0 -4.644620 0.000000
CHANNELS 3 Zrotation Xrotation Yrotation
							JOINT RightWrist
							{
OFFSET 0 -3.407030 0.000000
CHANNELS 3 Zrotation Xrotation Yrotation
								JOINT rhand
								{
									OFFSET 0 0 0
CHANNELS 3 Zrotation Xrotation Yrotation
									JOINT RFingers
									{
OFFSET 0 -0.619580 0.000000
CHANNELS 3 Zrotation Xrotation Yrotation
										End Site
										{
OFFSET 0 -0.499520 0.000000
										}
									}
								}
								JOINT RThumb
								{
OFFSET 0 0.000000 0.000000
CHANNELS 3 Zrotation Xrotation Yrotation
									End Site
									{
OFFSET 0 -0.507150 0.507150
									}
								}
							}
						}
					}
				}
			}
		}
	}
}
MOTION
Frames: 10
Frame Time: 0.008333333333333333
7.462248 17.005626 5.478591 526.335481 81.424189 521.043684 0.000000 0.000000 0.000000 -13.709738 5.514603 -9.403548 2.576240 9.975284 28.896844 0.984774 -4.252218 -17.815603 1.301518 -7.227005 -20.389894 0.000000 0.000000 0.000000 21.699087 -16.651385 12.780190 -0.144138 -2.446979 6.742623 -1.668389 4.708342 -23.359697 -0.286669 -3.441686 9.511139 0.088267 4.531654 2.068871 -1.329849 6.138136 3.156027 -1.408242 3.118495 2.242438 -0.553325 -3.284015 -23.724564 1.759289 -4.721952 18.125757 0.001966 -1.998892 9.696414 0.000000 0.000000 0.000000 14.292399 31.969261 -1.063976 17.513116 -27.529199 4.321878 25.891113 -24.264357 19.810690 0.000000 0.000000 0.000000 -7.125000 0.000000 0.000000 -1.592749 8.164240 -1.350931 0.000000 0.000000 0.000000 -20.380606 -11.214261 36.484656 -91.720398 -59.988589 -61.489816 -12.476208 -2.320135 29.836364 0.000000 0.000000 0.000000 7.125000 0.000000 0.000000 21.202493 59.134642 -7.533134
7.538030 17.019398 5.569759 537.124683 83.364039 532.429127 0.000000 0.000000 0.000000 -13.776599 4.880285 -12.398753 2.647304 10.100932 29.304086 0.959680 -5.969933 -17.477522 1.354912 -7.364553 -20.801715 0.000000 0.000000 0.000000 24.151537 -16.260853 12.397875 -0.125594 -2.284475 6.292506 -1.506988 5.623998 -22.057433 -0.367400 -3.890927 10.770375 2.364209 4.940267 2.371289 -0.604475 6.682983 3.192011 -1.934055 3.429918 2.301796 -0.212958 -3.026715 -23.508109 1.715324 -4.475410 18.326472 -0.029412 -1.862545 9.718192 0.000000 0.000000 0.000000 13.494487 32.113189 -3.994854 17.331680 -27.292992 4.238333 25.129300 -22.476253 20.736193 0.000000 0.000000 0.000000 -7.125000 0.000000 0.000000 -2.178317 7.300699 -1.886173 0.000000 0.000000 0.000000 -20.044735 -12.693264 37.613903 -87.891570 -59.981626 -58.174146 -12.550332 -3.302268 29.695594 0.000000 0.000000 0.000000 7.125000 0.000000 0.000000 21.020179 59.020976 -7.406713
7.626692 17.026618 5.668834 536.465898 85.398292 532.284284 0.000000 0.000000 0.000000 -15.794119 5.083582 -15.239512 2.733787 10.250895 29.793138 0.946222 -6.140103 -17.352371 1.197449 -6.897793 -19.431311 0.000000 0.000000 0.000000 24.641142 -15.512577 12.607626 -0.117025 -2.205469 6.073935 -1.363074 6.407162 -20.900682 -0.413674 -4.109641 11.387928 2.804808 5.497908 3.001915 -0.269623 7.443134 3.168303 -1.895110 3.811399 1.978643 -0.536024 -3.046764 -23.308104 1.911927 -4.446090 18.853039 0.095587 -1.839067 9.883295 0.000000 0.000000 0.000000 12.290105 32.223864 -5.229264 16.968698 -26.816247 4.073340 22.389666 -18.903982 22.309311 0.000000 0.000000 0.000000 -7.125000 0.000000 0.000000 -4.070531 6.098538 -3.623118 0.000000 0.000000 0.000000 -19.848038 -14.036267 39.076370 -82.473029 -59.780754 -53.486446 -12.203348 -4.465983 30.664948 0.000000 0.000000 0.000000 7.125000 0.000000 0.000000 22.128082 59.836576 -8.256663
7.751908 17.019405 5.739583 544.547013 87.872766 540.822861 0.000000 0.000000 0.000000 -17.589703 6.133474 -17.478476 2.708903 10.208196 29.653636 0.932045 -5.408698 -17.221996 2.014429 -8.896019 -25.470540 0.000000 0.000000 0.000000 24.550856 -16.257108 12.550154 -0.122152 -2.252939 6.205217 -1.081609 9.323994 -18.729995 -0.727777 -5.385940 15.027897 3.888709 6.083275 3.335901 -0.065419 8.253432 3.206074 -2.301316 4.238492 2.005085 -0.387753 -2.801850 -23.231210 2.067242 -4.205734 19.618739 0.159938 -1.680549 10.142668 0.000000 0.000000 0.000000 11.225861 32.519214 -4.491469 16.505833 -26.201745 3.866614 18.304839 -13.608115 22.324955 0.000000 0.000000 0.000000 -7.125000 0.000000 0.000000 -6.637200 6.719451 -5.854233 0.000000 0.000000 0.000000 -19.202274 -15.053069 40.877793 -76.220656 -59.264189 -48.096683 -12.708660 -4.514950 31.336847 0.000000 0.000000 0.000000 7.125000 0.000000 0.000000 22.144305 60.571504 -8.653559
7.864407 17.004822 5.837254 639.302301 88.873608 635.983227 0.000000 0.000000 0.000000 -18.546832 7.145756 -19.761079 2.747469 10.274570 29.870588 0.949126 -5.733752 -17.384210 1.972191 -8.806564 -25.193095 0.000000 0.000000 0.000000 25.601492 -16.169347 12.347689 -0.153040 -2.520168 6.945680 -0.938373 11.369142 -17.893573 -0.675876 -5.250946 14.626931 5.154674 6.425887 3.972619 0.207697 8.771828 3.321708 -2.764768 4.525224 1.960308 0.201517 -2.478051 -23.043476 1.787715 -3.887160 19.553408 0.016640 -1.525976 10.062540 0.000000 0.000000 0.000000 9.823525 32.837621 -2.399605 16.286678 -25.907799 3.770350 15.310324 -11.046087 21.818668 0.000000 0.000000 0.000000 -7.125000 0.000000 0.000000 -8.492546 7.640016 -7.371453 0.000000 0.000000 0.000000 -18.157488 -16.313086 43.014881 -69.065865 -58.271681 -41.976369 -13.148002 -3.173860 31.348008 0.000000 0.000000 0.000000 7.125000 0.000000 0.000000 21.689823 60.686630 -8.525687
7.996473 16.984626 5.959058 694.575636 87.048956 691.706930 0.000000 0.000000 0.000000 -20.109860 8.549060 -21.612224 2.642158 10.091958 29.275142 0.850929 -6.325761 -16.451569 2.620655 -10.054061 -29.151945 0.000000 0.000000 0.000000 26.108730 -15.490406 12.034414 -0.204045 -2.908700 8.024766 -0.837653 12.926034 -17.467468 -0.504268 -4.552420 12.636161 5.344043 6.828145 4.554844 0.148001 9.348680 3.395712 -2.992520 4.818624 1.807637 1.004514 -2.072540 -22.872439 1.728494 -3.578572 19.504928 -0.085944 -1.329773 9.996901 0.000000 0.000000 0.000000 9.147371 33.394791 -0.447057 15.912922 -25.402415 3.608542 14.184417 -8.951272 21.160642 0.000000 0.000000 0.000000 -7.125000 0.000000 0.000000 -9.176565 8.440538 -7.834099 0.000000 0.000000 0.000000 -16.870693 -17.395806 45.354861 -61.507287 -56.696274 -35.598488 -13.377343 -1.380450 31.742894 0.000000 0.000000 0.000000 7.125000 0.000000 0.000000 21.778149 61.104531 -8.780766
8.147854 16.953325 6.101593 704.765811 85.016806 702.431858 0.000000 0.000000 0.000000 -21.655694 9.608212 -22.795913 2.476127 9.794235 28.313162 0.773811 -6.534473 -15.698996 2.549686 -9.927368 -28.742028 0.000000 0.000000 0.000000 26.627390 -14.832474 11.670742 -0.261834 -3.291510 9.091582 -0.748746 13.393752 -16.879454 -0.569095 -4.829706 13.423715 4.944311 6.878457 4.708142 0.118884 9.410671 3.662644 -2.809719 4.852941 1.944962 1.473365 -1.527674 -23.050146 1.499966 -2.934640 19.440171 -0.147739 -1.027418 9.992217 0.000000 0.000000 0.000000 8.062487 33.875052 2.434814 15.438674 -24.753581 3.407551 13.742074 -7.287291 21.379769 0.000000 0.000000 0.000000 -7.125000 0.000000 0.000000 -9.465093 8.271453 -8.119576 0.000000 0.000000 0.000000 -15.579564 -18.608064 48.178866 -54.130979 -54.527377 -29.508001 -12.907934 0.636646 31.810493 0.000000 0.000000 0.000000 7.125000 0.000000 0.000000 22.334290 61.052828 -8.990329
8.300536 16.908725 6.264360 704.950199 83.019022 703.046686 0.000000 0.000000 0.000000 -22.190185 10.468888 -23.230167 2.282355 9.430655 27.152324 0.654619 -5.470969 -14.412055 1.433691 -7.541742 -21.344881 0.000000 0.000000 0.000000 27.698806 -14.393169 10.934752 -0.386308 -3.989469 11.047168 -0.677223 14.018898 -16.501109 -0.653256 -5.127733 14.282675 4.961444 7.001112 5.056174 -0.029043 9.595843 3.801734 -3.003654 4.953786 1.942658 2.255838 -1.038472 -22.629030 1.430487 -2.485270 19.149454 -0.228525 -0.776662 9.804039 0.000000 0.000000 0.000000 8.526678 34.147381 2.902303 14.673742 -23.689229 3.093877 15.206897 -5.962435 19.221363 0.000000 0.000000 0.000000 -7.125000 0.000000 0.000000 -8.451356 10.283926 -6.884365 0.000000 0.000000 0.000000 -13.899419 -18.912316 50.265747 -47.362169 -51.867230 -24.085008 -11.858347 3.552496 30.586097 0.000000 0.000000 0.000000 7.125000 0.000000 0.000000 22.423645 59.684657 -8.291159
8.463452 16.860355 6.456037 708.810925 81.211305 707.296272 0.000000 0.000000 0.000000 -22.771962 10.667387 -22.518223 2.006677 8.879447 25.419361 0.675372 -3.575617 -14.726726 0.017393 -0.013375 -0.036909 0.000000 0.000000 0.000000 28.204777 -13.171052 10.443597 -0.575430 -4.855063 13.496165 -0.708284 14.911985 -17.098779 -0.469941 -4.396481 12.194794 3.862720 7.091264 5.487912 -0.324189 9.695045 3.882958 -2.779029 4.981286 1.663701 2.671501 -0.489795 -22.879189 1.450640 -1.887381 19.566142 -0.202426 -0.454954 9.998082 0.000000 0.000000 0.000000 9.209919 34.163071 4.515626 13.758060 -22.387284 2.735574 15.310135 -3.183130 19.370368 0.000000 0.000000 0.000000 -7.125000 0.000000 0.000000 -8.389761 10.121195 -6.860738 0.000000 0.000000 0.000000 -12.206575 -18.535336 52.175235 -42.132071 -49.277923 -20.042251 -11.122415 6.215893 30.315359 0.000000 0.000000 0.000000 7.125000 0.000000 0.000000 22.982058 59.264503 -8.292634
8.651335 16.798702 6.646684 712.149770 80.189527 710.963035 0.000000 0.000000 0.000000 -22.899515 8.466524 -20.453933 1.730530 8.279839 23.567764 0.886643 2.858076 -19.072185 0.000816 -0.175935 -0.483425 0.000000 0.000000 0.000000 27.885181 -13.180558 9.790492 -0.758445 -5.558844 15.510381 -0.411423 16.467992 -15.354307 -0.638169 -5.110838 14.225043 2.521416 6.887972 5.608332 -0.703603 9.377939 4.029808 -2.454443 4.802074 1.570541 3.198119 0.164729 -22.175527 1.187667 -1.056903 19.224822 -0.256531 -0.074787 9.752018 0.000000 0.000000 0.000000 9.810262 33.876417 7.022904 12.826311 -21.032083 2.390691 15.707626 0.743462 19.455978 0.000000 0.000000 0.000000 -7.125000 0.000000 0.000000 -8.135744 9.988882 -6.670692 0.000000 0.000000 0.000000 -10.612961 -17.287235 53.553211 -38.028551 -46.853277 -16.987799 -9.508764 9.312912 30.777811 0.000000 0.000000 0.000000 7.125000 0.000000 0.000000 25.001424 59.321067 -9.096716
